<svg width="147" height="84" viewBox="0 0 147 84" fill="none" xmlns="http://www.w3.org/2000/svg">
<path d="M78.4205 38.2852L79.1729 39.4622L77.952 40.1762C75.9151 41.37 73.5861 42 71.2163 42C67.6351 42 64.2689 40.5972 61.7363 38.049C59.2038 35.5007 57.8097 32.1134 57.8097 28.5099C57.8097 25.9144 58.5329 23.4302 59.8852 21.2914C60.4101 20.4608 61.0289 19.6828 61.7374 18.9709C63.551 17.1461 65.7923 15.9082 68.2341 15.3527C69.2014 15.1322 70.201 15.0199 71.2174 15.0199C73.2595 15.0199 75.2577 15.484 77.0703 16.3691L79.9534 11.5287L75.0803 12.9693L71.2174 5.74126L67.3544 12.9703L62.4814 11.5298L64.8146 15.4462C64.0101 15.8473 63.2421 16.3271 62.5179 16.8794L56.6087 6.96028L66.0125 9.74061L71.2174 0L76.4223 9.74061L85.8261 6.96028L78.0052 20.0891L76.8303 19.3374C75.1523 18.2926 73.2115 17.7404 71.2184 17.7404C70.4463 17.7404 69.695 17.8233 68.9687 17.9798C65.7621 18.6727 63.0835 20.8157 61.6477 23.6906C60.9224 25.1416 60.5144 26.7796 60.5144 28.512C60.5144 34.4517 65.3165 39.2837 71.2195 39.2837C72.6501 39.2837 74.0609 38.9971 75.3673 38.4448L65.0463 21.1202C65.7329 20.5354 66.5019 20.045 67.3325 19.6692L78.4205 38.2852Z" fill="#BF624C"/>
<path d="M11.5864 68V66.875H11.7364C12.3364 66.875 12.803 66.7417 13.1364 66.475C13.4864 66.1917 13.8864 65.7417 14.3364 65.125L18.5614 59.225L14.4364 52.6C14.1364 52.1333 13.803 51.8 13.4364 51.6C13.0864 51.3833 12.703 51.275 12.2864 51.275H11.9614V50.15H19.1364V51.275H19.0614C18.4947 51.275 18.1114 51.35 17.9114 51.5C17.728 51.6333 17.6364 51.8 17.6364 52C17.6364 52.1833 17.6697 52.375 17.7364 52.575C17.8197 52.775 17.9864 53.075 18.2364 53.475L20.4364 56.975L22.7614 53.525C22.9447 53.2583 23.0947 53 23.2114 52.75C23.3447 52.4833 23.4114 52.2333 23.4114 52C23.4114 51.7 23.278 51.5083 23.0114 51.425C22.7447 51.325 22.4197 51.275 22.0364 51.275H21.9614V50.15H27.5364V51.275H27.3114C26.828 51.275 26.4114 51.4083 26.0614 51.675C25.728 51.925 25.3197 52.3917 24.8364 53.075L21.2114 58.225L25.8114 65.55C26.1614 66.05 26.503 66.4 26.8364 66.6C27.1864 66.7833 27.5114 66.875 27.8114 66.875H28.1364V68H20.9864V66.875H21.1114C22.1114 66.875 22.6114 66.6 22.6114 66.05C22.6114 65.8667 22.5614 65.675 22.4614 65.475C22.3614 65.2583 22.1364 64.875 21.7864 64.325L19.3614 60.475L16.6114 64.475C16.4614 64.675 16.3114 64.925 16.1614 65.225C16.028 65.525 15.9614 65.8083 15.9614 66.075C15.9614 66.6083 16.4864 66.875 17.5364 66.875H17.6114V68H11.5864ZM41.0403 68.25C39.2403 68.25 37.7403 67.8667 36.5403 67.1C35.3569 66.3333 34.4736 65.2583 33.8903 63.875C33.3069 62.4917 33.0153 60.875 33.0153 59.025C33.0153 57.175 33.3069 55.5667 33.8903 54.2C34.4736 52.8333 35.3653 51.775 36.5653 51.025C37.7653 50.2583 39.2653 49.875 41.0653 49.875C42.7819 49.875 44.2319 50.2583 45.4153 51.025C46.6153 51.775 47.5236 52.8417 48.1403 54.225C48.7569 55.5917 49.0653 57.2 49.0653 59.05C49.0653 60.9 48.7569 62.5167 48.1403 63.9C47.5236 65.2667 46.6153 66.3333 45.4153 67.1C44.2153 67.8667 42.7569 68.25 41.0403 68.25ZM41.0403 66.825C42.8236 66.825 44.0736 66.1417 44.7903 64.775C45.5236 63.4083 45.8903 61.5 45.8903 59.05C45.8903 56.6 45.5236 54.7 44.7903 53.35C44.0736 51.9833 42.8319 51.3 41.0653 51.3C39.2986 51.3 38.0403 51.9833 37.2903 53.35C36.5403 54.7 36.1653 56.6 36.1653 59.05C36.1653 61.5 36.5319 63.4083 37.2653 64.775C38.0153 66.1417 39.2736 66.825 41.0403 66.825ZM63.5129 68.25C61.7796 68.25 60.3296 67.8667 59.1629 67.1C57.9962 66.3333 57.1129 65.2667 56.5129 63.9C55.9129 62.5167 55.6129 60.9 55.6129 59.05C55.6129 57.25 55.9212 55.6667 56.5379 54.3C57.1712 52.9167 58.0879 51.8417 59.2879 51.075C60.5046 50.2917 62.0129 49.9 63.8129 49.9C65.5796 49.9 66.8879 50.175 67.7379 50.725C68.6046 51.2583 69.0379 51.925 69.0379 52.725C69.0379 53.2917 68.8129 53.75 68.3629 54.1C67.9129 54.4333 67.3296 54.6 66.6129 54.6C66.6129 54.0667 66.5212 53.55 66.3379 53.05C66.1546 52.55 65.8546 52.1333 65.4379 51.8C65.0212 51.4667 64.4546 51.3 63.7379 51.3C61.9212 51.3 60.6379 51.975 59.8879 53.325C59.1546 54.6583 58.7879 56.5667 58.7879 59.05C58.7879 60.5667 58.9629 61.8833 59.3129 63C59.6629 64.1167 60.2129 64.9833 60.9629 65.6C61.7296 66.2 62.7296 66.5 63.9629 66.5C65.1629 66.5 66.1129 66.275 66.8129 65.825C67.5129 65.375 68.0796 64.8667 68.5129 64.3C68.8129 64.5167 68.9629 64.85 68.9629 65.3C68.9629 65.7333 68.7712 66.1833 68.3879 66.65C68.0212 67.1 67.4379 67.4833 66.6379 67.8C65.8379 68.1 64.7962 68.25 63.5129 68.25ZM83.1106 68.25C81.3106 68.25 79.8106 67.8667 78.6106 67.1C77.4272 66.3333 76.5439 65.2583 75.9606 63.875C75.3772 62.4917 75.0856 60.875 75.0856 59.025C75.0856 57.175 75.3772 55.5667 75.9606 54.2C76.5439 52.8333 77.4356 51.775 78.6356 51.025C79.8356 50.2583 81.3356 49.875 83.1356 49.875C84.8522 49.875 86.3022 50.2583 87.4856 51.025C88.6856 51.775 89.5939 52.8417 90.2106 54.225C90.8272 55.5917 91.1356 57.2 91.1356 59.05C91.1356 60.9 90.8272 62.5167 90.2106 63.9C89.5939 65.2667 88.6856 66.3333 87.4856 67.1C86.2856 67.8667 84.8272 68.25 83.1106 68.25ZM83.1106 66.825C84.8939 66.825 86.1439 66.1417 86.8606 64.775C87.5939 63.4083 87.9606 61.5 87.9606 59.05C87.9606 56.6 87.5939 54.7 86.8606 53.35C86.1439 51.9833 84.9022 51.3 83.1356 51.3C81.3689 51.3 80.1106 51.9833 79.3606 53.35C78.6106 54.7 78.2356 56.6 78.2356 59.05C78.2356 61.5 78.6022 63.4083 79.3356 64.775C80.0856 66.1417 81.3439 66.825 83.1106 66.825ZM97.1582 68V66.875H97.6832C98.1832 66.875 98.6166 66.7833 98.9832 66.6C99.3499 66.4167 99.5332 65.9667 99.5332 65.25V52.925C99.5332 52.2083 99.3499 51.7583 98.9832 51.575C98.6166 51.375 98.1832 51.275 97.6832 51.275H97.1582V50.15H104.258C106.475 50.15 108.117 50.55 109.183 51.35C110.267 52.15 110.808 53.3417 110.808 54.925C110.808 55.8083 110.625 56.5583 110.258 57.175C109.908 57.775 109.458 58.2667 108.908 58.65C108.358 59.0167 107.792 59.3083 107.208 59.525L110.508 64.85C110.925 65.5333 111.333 66.0417 111.733 66.375C112.133 66.7083 112.583 66.875 113.083 66.875H113.183V68H112.683C111.65 68 110.833 67.95 110.233 67.85C109.65 67.7333 109.167 67.5167 108.783 67.2C108.4 66.8667 108.025 66.3833 107.658 65.75L104.408 60.15H102.433V65.25C102.433 65.9667 102.617 66.4167 102.983 66.6C103.35 66.7833 103.783 66.875 104.283 66.875H104.808V68H97.1582ZM104.108 58.9C105.475 58.9 106.417 58.5833 106.933 57.95C107.45 57.3167 107.708 56.3583 107.708 55.075C107.708 53.7583 107.425 52.825 106.858 52.275C106.308 51.7083 105.375 51.425 104.058 51.425H102.433V58.9H104.108ZM116.806 68V66.875H117.231C117.715 66.875 118.081 66.7583 118.331 66.525C118.598 66.275 118.873 65.75 119.156 64.95L124.681 50.15H127.031L132.556 65.425C132.773 65.9917 133.015 66.375 133.281 66.575C133.548 66.775 133.915 66.875 134.381 66.875H134.731V68H127.481V66.875H128.156C128.59 66.875 128.931 66.7833 129.181 66.6C129.431 66.4167 129.556 66.125 129.556 65.725C129.556 65.575 129.531 65.425 129.481 65.275C129.448 65.1083 129.406 64.9417 129.356 64.775L128.381 62.05H121.931L121.056 64.55C120.89 65 120.806 65.3917 120.806 65.725C120.806 66.4917 121.306 66.875 122.306 66.875H123.031V68H116.806ZM122.431 60.725H127.906L126.431 56.425C126.198 55.7417 125.973 55.0667 125.756 54.4C125.54 53.7333 125.365 53.1 125.231 52.5C125.098 53.0833 124.931 53.675 124.731 54.275C124.548 54.8583 124.323 55.5083 124.056 56.225L122.431 60.725Z" fill="#514633"/>
<path d="M32.1834 82.3173C31.4901 82.3173 30.9101 82.164 30.4434 81.8573C29.9767 81.5506 29.6234 81.124 29.3834 80.5773C29.1434 80.024 29.0234 79.3773 29.0234 78.6373C29.0234 77.9173 29.1467 77.284 29.3934 76.7373C29.6467 76.184 30.0134 75.754 30.4934 75.4473C30.9801 75.134 31.5834 74.9773 32.3034 74.9773C33.0101 74.9773 33.5334 75.0873 33.8734 75.3073C34.2201 75.5206 34.3934 75.7873 34.3934 76.1073C34.3934 76.334 34.3034 76.5173 34.1234 76.6573C33.9434 76.7906 33.7101 76.8573 33.4234 76.8573C33.4234 76.644 33.3867 76.4373 33.3134 76.2373C33.2401 76.0373 33.1201 75.8706 32.9534 75.7373C32.7867 75.604 32.5601 75.5373 32.2734 75.5373C31.5467 75.5373 31.0334 75.8073 30.7334 76.3473C30.4401 76.8806 30.2934 77.644 30.2934 78.6373C30.2934 79.244 30.3634 79.7706 30.5034 80.2173C30.6434 80.664 30.8634 81.0106 31.1634 81.2573C31.4701 81.4973 31.8701 81.6173 32.3634 81.6173C32.8434 81.6173 33.2234 81.5273 33.5034 81.3473C33.7834 81.1673 34.0101 80.964 34.1834 80.7373C34.3034 80.824 34.3634 80.9573 34.3634 81.1373C34.3634 81.3106 34.2867 81.4906 34.1334 81.6773C33.9867 81.8573 33.7534 82.0106 33.4334 82.1373C33.1134 82.2573 32.6967 82.3173 32.1834 82.3173ZM37.6025 82.2173V81.7673H37.8125C38.0125 81.7673 38.1858 81.7273 38.3325 81.6473C38.4791 81.5673 38.5525 81.374 38.5525 81.0673V76.1873C38.5525 75.9006 38.4791 75.7206 38.3325 75.6473C38.1858 75.5673 38.0125 75.5273 37.8125 75.5273H37.6025V75.0773H40.6625V75.5273H40.4525C40.2525 75.5273 40.0791 75.5673 39.9325 75.6473C39.7858 75.7273 39.7125 75.9206 39.7125 76.2273V78.2273H42.7925V76.2273C42.7925 75.9206 42.7191 75.7273 42.5725 75.6473C42.4325 75.5673 42.2591 75.5273 42.0525 75.5273H41.8425V75.0773H44.9025V75.5273H44.6925C44.4925 75.5273 44.3191 75.5673 44.1725 75.6473C44.0258 75.7273 43.9525 75.9206 43.9525 76.2273V81.1173C43.9525 81.404 44.0258 81.584 44.1725 81.6573C44.3191 81.7306 44.4925 81.7673 44.6925 81.7673H44.9025V82.2173H41.8425V81.7673H42.0525C42.2591 81.7673 42.4325 81.7273 42.5725 81.6473C42.7191 81.5673 42.7925 81.374 42.7925 81.0673V78.7573H39.7125V81.0673C39.7125 81.374 39.7858 81.5673 39.9325 81.6473C40.0791 81.7273 40.2525 81.7673 40.4525 81.7673H40.6625V82.2173H37.6025ZM51.5205 82.3173C50.8005 82.3173 50.2005 82.164 49.7205 81.8573C49.2472 81.5506 48.8938 81.1206 48.6605 80.5673C48.4272 80.014 48.3105 79.3673 48.3105 78.6273C48.3105 77.8873 48.4272 77.244 48.6605 76.6973C48.8938 76.1506 49.2505 75.7273 49.7305 75.4273C50.2105 75.1206 50.8105 74.9673 51.5305 74.9673C52.2172 74.9673 52.7972 75.1206 53.2705 75.4273C53.7505 75.7273 54.1138 76.154 54.3605 76.7073C54.6072 77.254 54.7305 77.8973 54.7305 78.6373C54.7305 79.3773 54.6072 80.024 54.3605 80.5773C54.1138 81.124 53.7505 81.5506 53.2705 81.8573C52.7905 82.164 52.2072 82.3173 51.5205 82.3173ZM51.5205 81.7473C52.2338 81.7473 52.7338 81.474 53.0205 80.9273C53.3138 80.3806 53.4605 79.6173 53.4605 78.6373C53.4605 77.6573 53.3138 76.8973 53.0205 76.3573C52.7338 75.8106 52.2372 75.5373 51.5305 75.5373C50.8238 75.5373 50.3205 75.8106 50.0205 76.3573C49.7205 76.8973 49.5705 77.6573 49.5705 78.6373C49.5705 79.6173 49.7172 80.3806 50.0105 80.9273C50.3105 81.474 50.8138 81.7473 51.5205 81.7473ZM61.5096 82.3173C60.8162 82.3173 60.2362 82.164 59.7696 81.8573C59.3029 81.5506 58.9496 81.124 58.7096 80.5773C58.4696 80.024 58.3496 79.3773 58.3496 78.6373C58.3496 77.9173 58.4729 77.284 58.7196 76.7373C58.9729 76.184 59.3396 75.754 59.8196 75.4473C60.3062 75.134 60.9096 74.9773 61.6296 74.9773C62.3362 74.9773 62.8596 75.0873 63.1996 75.3073C63.5462 75.5206 63.7196 75.7873 63.7196 76.1073C63.7196 76.334 63.6296 76.5173 63.4496 76.6573C63.2696 76.7906 63.0362 76.8573 62.7496 76.8573C62.7496 76.644 62.7129 76.4373 62.6396 76.2373C62.5662 76.0373 62.4462 75.8706 62.2796 75.7373C62.1129 75.604 61.8862 75.5373 61.5996 75.5373C60.8729 75.5373 60.3596 75.8073 60.0596 76.3473C59.7662 76.8806 59.6196 77.644 59.6196 78.6373C59.6196 79.244 59.6896 79.7706 59.8296 80.2173C59.9696 80.664 60.1896 81.0106 60.4896 81.2573C60.7962 81.4973 61.1962 81.6173 61.6896 81.6173C62.1696 81.6173 62.5496 81.5273 62.8296 81.3473C63.1096 81.1673 63.3362 80.964 63.5096 80.7373C63.6296 80.824 63.6896 80.9573 63.6896 81.1373C63.6896 81.3106 63.6129 81.4906 63.4596 81.6773C63.3129 81.8573 63.0796 82.0106 62.7596 82.1373C62.4396 82.2573 62.0229 82.3173 61.5096 82.3173ZM70.3486 82.3173C69.6286 82.3173 69.0286 82.164 68.5486 81.8573C68.0753 81.5506 67.722 81.1206 67.4886 80.5673C67.2553 80.014 67.1386 79.3673 67.1386 78.6273C67.1386 77.8873 67.2553 77.244 67.4886 76.6973C67.722 76.1506 68.0786 75.7273 68.5586 75.4273C69.0386 75.1206 69.6386 74.9673 70.3586 74.9673C71.0453 74.9673 71.6253 75.1206 72.0986 75.4273C72.5786 75.7273 72.942 76.154 73.1886 76.7073C73.4353 77.254 73.5586 77.8973 73.5586 78.6373C73.5586 79.3773 73.4353 80.024 73.1886 80.5773C72.942 81.124 72.5786 81.5506 72.0986 81.8573C71.6186 82.164 71.0353 82.3173 70.3486 82.3173ZM70.3486 81.7473C71.062 81.7473 71.562 81.474 71.8486 80.9273C72.142 80.3806 72.2886 79.6173 72.2886 78.6373C72.2886 77.6573 72.142 76.8973 71.8486 76.3573C71.562 75.8106 71.0653 75.5373 70.3586 75.5373C69.652 75.5373 69.1486 75.8106 68.8486 76.3573C68.5486 76.8973 68.3986 77.6573 68.3986 78.6373C68.3986 79.6173 68.5453 80.3806 68.8386 80.9273C69.1386 81.474 69.642 81.7473 70.3486 81.7473ZM76.9677 82.2173V81.7673H77.1777C77.3844 81.7673 77.5577 81.7273 77.6977 81.6473C77.8444 81.5673 77.9177 81.374 77.9177 81.0673V76.2273C77.9177 75.9206 77.8444 75.7273 77.6977 75.6473C77.5577 75.5673 77.3844 75.5273 77.1777 75.5273H76.9677V75.0773H80.0277V75.5273H79.8177C79.6177 75.5273 79.4444 75.5673 79.2977 75.6473C79.1577 75.7206 79.0877 75.9006 79.0877 76.1873V81.6873H81.0277C81.3077 81.6873 81.511 81.5973 81.6377 81.4173C81.771 81.2373 81.8544 81.0306 81.8877 80.7973L82.0077 80.0473H82.5377L82.4677 82.2173H76.9677ZM85.4461 82.2173V81.7673H85.6161C85.8094 81.7673 85.9561 81.7206 86.0561 81.6273C86.1627 81.5273 86.2727 81.3173 86.3861 80.9973L88.5961 75.0773H89.5361L91.7461 81.1873C91.8327 81.414 91.9294 81.5673 92.0361 81.6473C92.1427 81.7273 92.2894 81.7673 92.4761 81.7673H92.6161V82.2173H89.7161V81.7673H89.9861C90.1594 81.7673 90.2961 81.7306 90.3961 81.6573C90.4961 81.584 90.5461 81.4673 90.5461 81.3073C90.5461 81.2473 90.5361 81.1873 90.5161 81.1273C90.5027 81.0606 90.4861 80.994 90.4661 80.9273L90.0761 79.8373H87.4961L87.1461 80.8373C87.0794 81.0173 87.0461 81.174 87.0461 81.3073C87.0461 81.614 87.2461 81.7673 87.6461 81.7673H87.9361V82.2173H85.4461ZM87.6961 79.3073H89.8861L89.2961 77.5873C89.2027 77.314 89.1127 77.044 89.0261 76.7773C88.9394 76.5106 88.8694 76.2573 88.8161 76.0173C88.7627 76.2506 88.6961 76.4873 88.6161 76.7273C88.5427 76.9606 88.4527 77.2206 88.3461 77.5073L87.6961 79.3073ZM96.0281 82.2173V81.7673H96.3081C96.5081 81.7673 96.6814 81.7306 96.8281 81.6573C96.9748 81.5773 97.0481 81.394 97.0481 81.1073V75.6073H96.1281C95.8348 75.6073 95.6314 75.684 95.5181 75.8373C95.4048 75.9906 95.3348 76.1773 95.3081 76.3973L95.2481 76.8773H94.6881L94.7381 75.0773H100.538L100.588 76.8773H100.028L99.9681 76.3973C99.9414 76.1773 99.8714 75.9906 99.7581 75.8373C99.6448 75.684 99.4381 75.6073 99.1381 75.6073H98.2181V81.0673C98.2181 81.374 98.2881 81.5673 98.4281 81.6473C98.5748 81.7273 98.7481 81.7673 98.9481 81.7673H99.2281V82.2173H96.0281ZM103.608 82.2173V81.7673H103.818C104.018 81.7673 104.192 81.7306 104.338 81.6573C104.485 81.584 104.558 81.404 104.558 81.1173V76.2273C104.558 75.9206 104.485 75.7273 104.338 75.6473C104.198 75.5673 104.025 75.5273 103.818 75.5273H103.608V75.0773H108.788L108.838 76.8473H108.268L108.218 76.4073C108.192 76.1806 108.118 75.9906 107.998 75.8373C107.878 75.684 107.682 75.6073 107.408 75.6073H105.728V78.2273H108.128V78.7473H105.728V81.6873H107.678C107.958 81.6873 108.162 81.6106 108.288 81.4573C108.422 81.2973 108.505 81.1073 108.538 80.8873L108.608 80.4473H109.178L109.108 82.2173H103.608ZM114.587 82.3173C113.867 82.3173 113.337 82.1806 112.997 81.9073C112.664 81.634 112.497 81.3006 112.497 80.9073C112.497 80.6673 112.574 80.484 112.727 80.3573C112.88 80.2306 113.08 80.1673 113.327 80.1673C113.347 80.6273 113.464 81.014 113.677 81.3273C113.897 81.6406 114.234 81.7973 114.687 81.7973C115.114 81.7973 115.45 81.6906 115.697 81.4773C115.944 81.264 116.067 80.9673 116.067 80.5873C116.067 80.3473 116.014 80.144 115.907 79.9773C115.807 79.804 115.64 79.6473 115.407 79.5073C115.174 79.3606 114.864 79.2073 114.477 79.0473C113.837 78.7873 113.37 78.4906 113.077 78.1573C112.784 77.8173 112.637 77.3806 112.637 76.8473C112.637 76.454 112.734 76.1206 112.927 75.8473C113.12 75.5673 113.387 75.354 113.727 75.2073C114.074 75.054 114.464 74.9773 114.897 74.9773C115.53 74.9773 116.01 75.0906 116.337 75.3173C116.67 75.544 116.837 75.8073 116.837 76.1073C116.837 76.3273 116.757 76.5006 116.597 76.6273C116.437 76.7473 116.214 76.8073 115.927 76.8073C115.927 76.6073 115.89 76.4073 115.817 76.2073C115.75 76.0073 115.634 75.8406 115.467 75.7073C115.307 75.574 115.09 75.5073 114.817 75.5073C114.464 75.5073 114.184 75.604 113.977 75.7973C113.77 75.9906 113.667 76.254 113.667 76.5873C113.667 76.834 113.714 77.0473 113.807 77.2273C113.9 77.4006 114.06 77.5606 114.287 77.7073C114.52 77.854 114.837 78.0106 115.237 78.1773C115.85 78.424 116.317 78.7073 116.637 79.0273C116.957 79.3406 117.117 79.7506 117.117 80.2573C117.117 80.8973 116.887 81.4006 116.427 81.7673C115.974 82.134 115.36 82.3173 114.587 82.3173Z" fill="#716147"/>
</svg>
